<?xml version="1.0" encoding="UTF-8"?>
<svg id="Camada_2" xmlns="http://www.w3.org/2000/svg" viewBox="0 0 246.55 172.59">
  <g id="Camada_2-2" data-name="Camada_2">
    <path d="M0,172.59C0,115.06,0,57.53,0,0c82.18,0,164.37,0,246.55,0,0,57.53,0,115.06,0,172.59-82.18,0-164.37,0-246.55,0ZM21.79,86.2c1.47,1.14,2.27,1.86,3.17,2.44,31.86,20.34,63.73,40.65,95.55,61.05,2.26,1.45,3.85,1.06,5.9-.26,31.26-20.01,62.55-39.95,93.83-59.93,1.43-.91,2.74-2,4.51-3.29-1.77-1.23-2.95-2.13-4.2-2.92-31.4-20.04-62.82-40.04-94.16-60.18-2.58-1.66-4.31-1.19-6.61.28-30.8,19.71-61.64,39.35-92.46,59.02-1.7,1.09-3.34,2.28-5.54,3.8Z"/>
  </g>
</svg>